<svg xmlns="http://www.w3.org/2000/svg" viewBox="0 0 768 128"><rect width="768" height="128" fill="none"/><g fill="#fff" stroke="#101827" stroke-width="5"><rect x="16" y="16" width="96" height="96" rx="18"/><rect x="144" y="16" width="96" height="96" rx="18"/><rect x="272" y="16" width="96" height="96" rx="18"/><rect x="400" y="16" width="96" height="96" rx="18"/><rect x="528" y="16" width="96" height="96" rx="18"/><rect x="656" y="16" width="96" height="96" rx="18"/></g><g fill="#101827"><circle cx="64" cy="64" r="8"/><circle cx="174" cy="44" r="8"/><circle cx="210" cy="84" r="8"/><circle cx="302" cy="42" r="8"/><circle cx="320" cy="64" r="8"/><circle cx="338" cy="86" r="8"/><circle cx="430" cy="42" r="8"/><circle cx="466" cy="42" r="8"/><circle cx="430" cy="86" r="8"/><circle cx="466" cy="86" r="8"/><circle cx="558" cy="40" r="8"/><circle cx="594" cy="40" r="8"/><circle cx="576" cy="64" r="8"/><circle cx="558" cy="88" r="8"/><circle cx="594" cy="88" r="8"/><circle cx="686" cy="40" r="8"/><circle cx="722" cy="40" r="8"/><circle cx="686" cy="64" r="8"/><circle cx="722" cy="64" r="8"/><circle cx="686" cy="88" r="8"/><circle cx="722" cy="88" r="8"/></g></svg>
